<?xml version="1.0" encoding="UTF-8"?>
<svg id="Layer_1" xmlns="http://www.w3.org/2000/svg" version="1.1" viewBox="0 0 1600 900">
  <!-- Generator: Adobe Illustrator 29.5.1, SVG Export Plug-In . SVG Version: 2.1.0 Build 141)  -->
  <defs>
    <style>
      .st0 {
        fill-rule: evenodd;
      }

      .st0, .st1 {
        fill: #af782b;
      }

      .st2 {
        fill: none;
      }
    </style>
  </defs>
  <path class="st0" d="M1073.98,169.94L800.3,11.72c-1.58-.91-3.54-.9-5.13,0-1.59.9-2.57,2.61-2.58,4.47v316.44c0,1.83.98,3.53,2.58,4.46l273.68,158.22c1.6.93,3.56.92,5.12,0,1.6-.93,2.58-2.61,2.58-4.47l.02-316.44c-.02-1.83-.99-3.53-2.59-4.46M802.88,25.08l263.4,152.28v304.57s-263.41-152.28-263.41-152.28V25.08Z"/>
  <path class="st0" d="M520.43,169.92L794.17,11.68c1.58-.91,3.54-.91,5.13,0,1.59.9,2.57,2.61,2.58,4.47v316.48c0,1.83-.98,3.53-2.58,4.46l-273.74,158.24c-1.6.93-3.56.92-5.12,0-1.61-.93-2.58-2.61-2.58-4.47l-.02-316.47c.01-1.83.99-3.53,2.59-4.46M791.59,25.05l-263.46,152.3v304.61s263.47-152.3,263.47-152.3V25.05Z"/>
  <g>
    <path class="st2" d="M799.78,563.42c-1.57.92-3.55.92-5.12,0l-266.36-153.78.16,304.31,268.93,155.29,268.79-155-.16-304.31-266.23,153.49Z"/>
    <path class="st1" d="M1076.29,401.02c0-1.82-.99-3.52-2.57-4.44-1.61-.93-3.58-.93-5.15,0l-271.35,156.48-271.49-156.77c-1.61-.93-3.58-.93-5.15,0-1.57.93-2.56,2.62-2.56,4.44l.17,316.22c0,1.82.99,3.52,2.57,4.44l274.08,158.23c1.57.93,3.55.93,5.12,0l273.95-157.93c1.57-.93,2.56-2.62,2.56-4.44l-.17-316.22ZM797.39,869.24l-268.93-155.29-.16-304.31,266.36,153.78c1.58.93,3.55.93,5.12,0l266.23-153.49.16,304.31-268.79,155Z"/>
  </g>
</svg>