<?xml version="1.0" encoding="UTF-8"?>
<svg id="Layer_1" xmlns="http://www.w3.org/2000/svg" version="1.1" viewBox="0 0 160 160">
  <!-- Generator: Adobe Illustrator 29.5.1, SVG Export Plug-In . SVG Version: 2.1.0 Build 141)  -->
  <defs>
    <style>
      .st0 {
        fill: #af782b;
        fill-rule: evenodd;
      }
    </style>
  </defs>
  <path class="st0" d="M123.98,36.18l-43.49-25.14c-.25-.14-.56-.14-.81,0-.25.14-.41.42-.41.71v50.29c0,.29.16.56.41.71l43.49,25.14c.25.15.57.15.81,0,.25-.15.41-.42.41-.71v-50.29c0-.29-.15-.56-.41-.71M80.9,13.16l41.86,24.2v48.4s-41.86-24.2-41.86-24.2V13.16Z"/>
  <path class="st0" d="M36.02,36.18l43.5-25.15c.25-.14.56-.14.81,0,.25.14.41.42.41.71v50.29c0,.29-.16.56-.41.71l-43.5,25.15c-.25.15-.57.15-.81,0-.26-.15-.41-.42-.41-.71v-50.29c0-.29.15-.56.41-.71M79.11,13.16l-41.87,24.2v48.41s41.87-24.2,41.87-24.2V13.16Z"/>
  <path class="st0" d="M35.66,123.11l-.03-50.25c0-.29.16-.56.41-.71.25-.15.56-.15.82,0l43.14,24.91,43.12-24.87c.25-.15.56-.15.82,0,.25.15.41.42.41.71l.03,50.25c0,.29-.16.56-.41.71l-43.53,25.1c-.25.15-.56.15-.81,0l-43.56-25.14c-.25-.15-.41-.42-.41-.71M37.27,74.28l.03,48.36,42.74,24.68,42.72-24.63-.03-48.36-42.31,24.39c-.25.15-.56.15-.81,0l-42.33-24.44Z"/>
</svg>